<svg width="27" height="25" viewBox="0 0 27 25" fill="none" xmlns="http://www.w3.org/2000/svg">
<path d="M18.4828 23.1921V4.35468C18.4828 3.73018 18.2347 3.13126 17.7931 2.68967C17.3515 2.24808 16.7526 2 16.1281 2H11.4187C10.7942 2 10.1953 2.24808 9.75371 2.68967C9.31212 3.13126 9.06404 3.73018 9.06404 4.35468V23.1921M4.35468 6.70936H23.1921C24.4926 6.70936 25.5468 7.76359 25.5468 9.06404V20.8374C25.5468 22.1379 24.4926 23.1921 23.1921 23.1921H4.35468C3.05423 23.1921 2 22.1379 2 20.8374V9.06404C2 7.76359 3.05423 6.70936 4.35468 6.70936Z" stroke="#93FF9A" stroke-width="2.35468" stroke-linecap="round" stroke-linejoin="round"/>
</svg>
