<svg width="73" height="73" viewBox="0 0 73 73" fill="none" xmlns="http://www.w3.org/2000/svg">
<g clip-path="url(#clip0_1_445)">
<path d="M36.4407 3.97559V69.9087M51.4256 15.9634H28.9483C26.1664 15.9634 23.4984 17.0686 21.5312 19.0357C19.5641 21.0028 18.459 23.6708 18.459 26.4528C18.459 29.2347 19.5641 31.9028 21.5312 33.8699C23.4984 35.837 26.1664 36.9422 28.9483 36.9422H43.9331C46.7151 36.9422 49.3831 38.0473 51.3503 40.0144C53.3174 41.9816 54.4225 44.6496 54.4225 47.4315C54.4225 50.2135 53.3174 52.8815 51.3503 54.8486C49.3831 56.8158 46.7151 57.9209 43.9331 57.9209H18.459" stroke="white" stroke-width="5.99392" stroke-linecap="round" stroke-linejoin="round"/>
</g>
<defs>
<clipPath id="clip0_1_445">
<rect width="71.9271" height="71.9271" fill="white" transform="translate(0.477051 0.978516)"/>
</clipPath>
</defs>
</svg>
