<svg width="46" height="46" viewBox="0 0 46 46" fill="none" xmlns="http://www.w3.org/2000/svg">
<path d="M43 42.9999V42.0785C43 40.0787 43 39.0788 42.7694 38.2611C42.1892 36.204 40.5816 34.5964 38.5246 34.0163C37.7068 33.7856 36.7069 33.7856 34.7072 33.7856H25.6976C23.6979 33.7856 22.698 33.7856 21.8802 34.0163C19.8232 34.5964 18.2156 36.204 17.6354 38.2611C17.4048 39.0788 17.4048 40.0787 17.4048 42.0785V42.9999" stroke="white" stroke-width="4.09524" stroke-linecap="round" stroke-linejoin="round"/>
<path d="M6.14307 35.8332V32.557C6.14307 30.8437 6.14307 29.9871 6.31279 29.2801C6.85204 27.034 8.60577 25.2803 10.8519 24.741C11.5589 24.5713 12.4155 24.5713 14.1288 24.5713H14.3335" stroke="white" stroke-width="4.09524" stroke-linecap="round" stroke-linejoin="round"/>
<path d="M37.8812 19.4523C37.8812 23.4104 34.6726 26.619 30.7145 26.619C26.7565 26.619 23.5479 23.4104 23.5479 19.4523C23.5479 15.4943 26.7565 12.2856 30.7145 12.2856C34.6726 12.2856 37.8812 15.4943 37.8812 19.4523Z" stroke="white" stroke-width="4.09524"/>
<path d="M22.524 8.96955C21.3234 7.26589 19.2705 6.14307 16.9396 6.14307C13.2386 6.14307 10.2383 8.97386 10.2383 12.4658C10.2383 15.2188 12.103 17.5608 14.7058 18.4288" stroke="white" stroke-width="4.09524" stroke-linecap="round"/>
</svg>
