<svg width="27" height="27" viewBox="0 0 27 27" fill="none" xmlns="http://www.w3.org/2000/svg">
<path d="M23.1921 13.7734V25.5468H4.35468V13.7734M13.7734 25.5468V7.8867M13.7734 7.8867H8.47537C7.69474 7.8867 6.94609 7.5766 6.39411 7.02461C5.84212 6.47263 5.53202 5.72397 5.53202 4.94335C5.53202 4.16272 5.84212 3.41407 6.39411 2.86209C6.94609 2.3101 7.69474 2 8.47537 2C12.5961 2 13.7734 7.8867 13.7734 7.8867ZM13.7734 7.8867H19.0714C19.8521 7.8867 20.6007 7.5766 21.1527 7.02461C21.7047 6.47263 22.0148 5.72397 22.0148 4.94335C22.0148 4.16272 21.7047 3.41407 21.1527 2.86209C20.6007 2.3101 19.8521 2 19.0714 2C14.9507 2 13.7734 7.8867 13.7734 7.8867ZM2 7.8867H25.5468V13.7734H2V7.8867Z" stroke="#7CFF97" stroke-width="2.35468" stroke-linecap="round" stroke-linejoin="round"/>
</svg>
