<svg width="47" height="47" viewBox="0 0 47 47" fill="none" xmlns="http://www.w3.org/2000/svg">
<path d="M45 23.5C45 35.3741 35.3741 45 23.5 45M45 23.5C45 11.6259 35.3741 2 23.5 2M45 23.5H2M23.5 45C11.6259 45 2 35.3741 2 23.5M23.5 45C28.8778 39.1125 31.9339 31.4721 32.1 23.5C31.9339 15.5279 28.8778 7.88746 23.5 2M23.5 45C18.1222 39.1125 15.0661 31.4721 14.9 23.5C15.0661 15.5279 18.1222 7.88746 23.5 2M2 23.5C2 11.6259 11.6259 2 23.5 2" stroke="white" stroke-width="4" stroke-linecap="round" stroke-linejoin="round"/>
</svg>
