<svg width="27" height="27" viewBox="0 0 27 27" fill="none" xmlns="http://www.w3.org/2000/svg">
<path d="M25.5468 13.7734C25.5468 20.2757 20.2757 25.5468 13.7734 25.5468M25.5468 13.7734C25.5468 7.27113 20.2757 2 13.7734 2M25.5468 13.7734H2M13.7734 25.5468C7.27113 25.5468 2 20.2757 2 13.7734M13.7734 25.5468C16.7183 22.3228 18.3918 18.1389 18.4828 13.7734C18.3918 9.40786 16.7183 5.22397 13.7734 2M13.7734 25.5468C10.8285 22.3228 9.15499 18.1389 9.06404 13.7734C9.15499 9.40786 10.8285 5.22397 13.7734 2M2 13.7734C2 7.27113 7.27113 2 13.7734 2" stroke="#86FF99" stroke-width="2.35468" stroke-linecap="round" stroke-linejoin="round"/>
</svg>
