<svg width="476" height="368" viewBox="0 0 476 368" fill="none" xmlns="http://www.w3.org/2000/svg">
<path d="M0 367.707H328.717C359.821 367.707 387.351 347.74 397.161 318.247L427.961 228.321L472.222 95.1084C487.736 48.3163 452.981 0 403.701 0H174.99C143.885 0 116.356 19.9667 106.545 49.4594L0 367.707Z" fill="#040B12"/>
<circle cx="255.5" cy="184.5" r="90.5" fill="url(#paint0_linear_135_1368)"/>
<path d="M240.167 180.833L252.834 152.333C255.354 152.333 257.77 153.334 259.552 155.116C261.333 156.898 262.334 159.314 262.334 161.833V174.5H280.257C281.175 174.49 282.085 174.679 282.922 175.055C283.76 175.431 284.506 175.984 285.108 176.677C285.711 177.37 286.155 178.186 286.411 179.067C286.667 179.949 286.728 180.876 286.591 181.783L282.221 210.283C281.992 211.794 281.225 213.17 280.061 214.16C278.897 215.149 277.415 215.684 275.887 215.667H240.167M240.167 180.833V215.667M240.167 180.833H230.667C228.988 180.833 227.377 181.501 226.189 182.688C225.001 183.876 224.334 185.487 224.334 187.167V209.333C224.334 211.013 225.001 212.624 226.189 213.812C227.377 215 228.988 215.667 230.667 215.667H240.167" stroke="#1E1E1E" stroke-width="6.33333" stroke-linecap="round" stroke-linejoin="round"/>
<defs>
<linearGradient id="paint0_linear_135_1368" x1="185.677" y1="254.323" x2="313.663" y2="126.337" gradientUnits="userSpaceOnUse">
<stop stop-color="#06FF89"/>
<stop offset="0.37" stop-color="#4DFF91"/>
<stop offset="0.8" stop-color="#99FF9B"/>
<stop offset="1" stop-color="#B8FF9F"/>
</linearGradient>
</defs>
</svg>
