<svg width="28" height="25" viewBox="0 0 28 25" fill="none" xmlns="http://www.w3.org/2000/svg">
<path d="M24.7124 3.89767C24.1111 3.29605 23.3971 2.81881 22.6113 2.4932C21.8254 2.16759 20.9832 2 20.1326 2C19.2819 2 18.4397 2.16759 17.6538 2.4932C16.868 2.81881 16.154 3.29605 15.5527 3.89767L14.3047 5.14565L13.0567 3.89767C11.8421 2.68301 10.1947 2.00063 8.47689 2.00063C6.75911 2.00063 5.11169 2.68301 3.89704 3.89767C2.68238 5.11232 2 6.75974 2 8.47752C2 10.1953 2.68238 11.8427 3.89704 13.0574L14.3047 23.4651L24.7124 13.0574C25.314 12.456 25.7913 11.7421 26.1169 10.9562C26.4425 10.1704 26.6101 9.32813 26.6101 8.47752C26.6101 7.62691 26.4425 6.78463 26.1169 5.9988C25.7913 5.21297 25.314 4.499 24.7124 3.89767Z" stroke="#49FF91" stroke-width="2.35468" stroke-linecap="round" stroke-linejoin="round"/>
</svg>
