<svg width="204" height="41" viewBox="0 0 204 41" fill="none" xmlns="http://www.w3.org/2000/svg">
<path d="M22.2611 33.1179H10.8669C10.3375 33.1179 9.86881 32.7811 9.70124 32.2794L0.244915 3.91171C-0.0197844 3.11921 0.572754 2.30005 1.41056 2.30005H12.8048C13.3342 2.30005 13.8029 2.63692 13.9704 3.1386L23.4268 31.5063C23.6915 32.2988 23.0989 33.1179 22.2611 33.1179Z" fill="#07232F"/>
<path d="M22.6811 33.1179H32.7907C33.3201 33.1179 33.7887 32.781 33.9563 32.2794L40.4184 14.7571H27.7201L21.5179 31.5063C21.2532 32.2988 21.8457 33.1179 22.6835 33.1179H22.6811Z" fill="#07232F"/>
<path d="M28.6113 11.6936H46.7517C47.745 11.6936 48.6241 11.0587 48.9373 10.1208L49.9209 7.26096L51.3342 3.02459C51.8296 1.53653 50.7198 0 49.1462 0H34.1992C33.2059 0 32.3268 0.634971 32.0136 1.57289L28.6113 11.6936Z" fill="#07232F"/>
<path d="M63.1026 33.1858L56.8008 15.0212H60.4701L65.5844 30.6313H66.1405L71.2184 15.0212H74.8878L68.586 33.1858H63.1001H63.1026Z" fill="#07232F"/>
<path d="M83.0085 33.7043C81.7239 33.7043 80.5679 33.4813 79.5431 33.0378C78.5183 32.5943 77.7024 31.9399 77.0977 31.0771C76.493 30.2144 76.1895 29.1795 76.1895 27.9701C76.1895 26.7608 76.4906 25.709 77.0977 24.8801C77.7024 24.0537 78.5256 23.4381 79.5626 23.0309C80.5995 22.6238 81.7749 22.4202 83.0838 22.4202H88.9023V21.1624C88.9023 20.0282 88.5551 19.1169 87.8654 18.4238C87.1733 17.7331 86.1363 17.3889 84.7521 17.3889C83.3679 17.3889 82.3358 17.7161 81.583 18.368C80.8278 19.0224 80.3275 19.8779 80.0822 20.9394L76.8573 19.9046C77.1535 18.9182 77.6222 18.019 78.2658 17.2047C78.9069 16.3904 79.7714 15.7385 80.8593 15.2441C81.9473 14.7521 83.2562 14.5049 84.7885 14.5049C87.1368 14.5049 88.9776 15.1035 90.3108 16.2983C91.6465 17.4955 92.3118 19.1896 92.3118 21.3854V29.1916C92.3118 29.9308 92.6567 30.3016 93.3488 30.3016H94.9418V33.1881H92.1977C91.3575 33.1881 90.6775 32.9651 90.1602 32.5216C89.643 32.0781 89.3807 31.4746 89.3807 30.7088V30.5609H88.8246C88.6255 30.956 88.3122 31.4067 87.8799 31.9108C87.4477 32.4174 86.843 32.8415 86.0635 33.1881C85.2839 33.5322 84.2664 33.7067 83.0061 33.7067L83.0085 33.7043ZM83.5282 30.8178C85.1091 30.8178 86.401 30.3501 87.4015 29.4122C88.4021 28.4742 88.9023 27.1801 88.9023 25.5272V25.12H83.3048C82.2168 25.12 81.3402 25.3551 80.6724 25.8229C80.0045 26.2906 79.6718 26.9692 79.6718 27.8562C79.6718 28.7433 80.0167 29.4897 80.7088 30.0205C81.4009 30.5512 82.3407 30.8154 83.5258 30.8154L83.5282 30.8178Z" fill="#07232F"/>
<path d="M104.359 33.5178C102.999 33.5178 101.775 33.2148 100.69 32.6114C99.6017 32.0079 98.7445 31.1451 98.1131 30.023C97.4841 28.9009 97.1685 27.551 97.1685 25.9733V15.0237H100.653V25.714C100.653 27.3668 101.066 28.5883 101.894 29.3759C102.722 30.166 103.864 30.5586 105.323 30.5586C106.955 30.5586 108.276 30.0158 109.289 28.93C110.301 27.8443 110.809 26.2544 110.809 24.158V15.0212H114.294V33.1858H110.884V30.3381H110.328C109.957 31.1282 109.315 31.8552 108.4 32.5217C107.484 33.1882 106.139 33.5202 104.359 33.5202V33.5178Z" fill="#07232F"/>
<path d="M119.26 33.1857V7.29004H122.706V33.1857H119.26Z" fill="#07232F"/>
<path d="M134.457 33.1856C133.369 33.1856 132.517 32.8706 131.9 32.2429C131.283 31.6152 130.972 30.7694 130.972 29.7079V17.9439H125.783V15.0211H130.972V8.80713H134.418V15.0211H140.089V17.9439H134.418V29.1529C134.418 29.892 134.775 30.2628 135.494 30.2628H139.387V33.1856H134.457Z" fill="#07232F"/>
<path d="M143.799 40.5847V15.0211H147.172V17.7597H147.729C148.197 16.9212 148.933 16.1699 149.934 15.5034C150.934 14.8369 152.338 14.5049 154.142 14.5049C155.699 14.5049 157.119 14.8757 158.404 15.6149C159.689 16.3541 160.713 17.4228 161.481 18.814C162.246 20.2075 162.629 21.8798 162.629 23.8259V24.3445C162.629 26.3173 162.246 28.0016 161.481 29.3952C160.713 30.7887 159.689 31.8551 158.404 32.5943C157.119 33.3335 155.699 33.7043 154.142 33.7043C152.93 33.7043 151.905 33.5492 151.065 33.2414C150.225 32.9336 149.545 32.5385 149.028 32.0587C148.508 31.5788 148.1 31.0796 147.804 30.5609H147.248V40.5872H143.802L143.799 40.5847ZM153.175 30.67C154.929 30.67 156.364 30.1101 157.476 28.988C158.588 27.8659 159.145 26.293 159.145 24.2718V23.9398C159.145 21.9185 158.581 20.3456 157.459 19.2235C156.335 18.1014 154.907 17.5416 153.178 17.5416C151.449 17.5416 150.021 18.1039 148.897 19.2235C147.772 20.3456 147.211 21.9185 147.211 23.9398V24.2718C147.211 26.2955 147.772 27.8659 148.897 28.988C150.021 30.1101 151.449 30.67 153.178 30.67H153.175Z" fill="#07232F"/>
<path d="M172.304 33.7043C171.02 33.7043 169.864 33.4813 168.839 33.0378C167.814 32.5943 166.998 31.9399 166.394 31.0771C165.789 30.2144 165.485 29.1795 165.485 27.9701C165.485 26.7608 165.786 25.709 166.394 24.8801C166.998 24.0537 167.822 23.4381 168.858 23.0309C169.895 22.6238 171.071 22.4202 172.38 22.4202H178.198V21.1624C178.198 20.0282 177.851 19.1169 177.161 18.4238C176.469 17.7331 175.432 17.3889 174.048 17.3889C172.664 17.3889 171.632 17.7161 170.879 18.368C170.124 19.0224 169.623 19.8779 169.378 20.9394L166.153 19.9046C166.449 18.9182 166.918 18.019 167.562 17.2047C168.203 16.3904 169.067 15.7385 170.155 15.2441C171.243 14.7521 172.552 14.5049 174.084 14.5049C176.433 14.5049 178.273 15.1035 179.607 16.2983C180.942 17.4955 181.608 19.1896 181.608 21.3854V29.1916C181.608 29.9308 181.953 30.3016 182.645 30.3016H184.238V33.1881H181.494C180.653 33.1881 179.973 32.9651 179.456 32.5216C178.939 32.0781 178.677 31.4746 178.677 30.7088V30.5609H178.12C177.921 30.956 177.608 31.4067 177.176 31.9108C176.744 32.4174 176.139 32.8415 175.359 33.1881C174.58 33.5322 173.562 33.7067 172.302 33.7067L172.304 33.7043ZM172.822 30.8178C174.403 30.8178 175.694 30.3501 176.695 29.4122C177.696 28.4742 178.196 27.1801 178.196 25.5272V25.12H172.598C171.51 25.12 170.634 25.3551 169.966 25.8229C169.298 26.2906 168.965 26.9692 168.965 27.8562C168.965 28.7433 169.31 29.4897 170.002 30.0205C170.694 30.5512 171.634 30.8154 172.819 30.8154L172.822 30.8178Z" fill="#07232F"/>
<path d="M188.799 40.5849V37.5506H199.066C199.782 37.5506 200.142 37.1798 200.142 36.4406V30.4472H199.586C199.338 30.9416 198.981 31.4263 198.51 31.9086C198.041 32.3884 197.41 32.7786 196.621 33.0743C195.829 33.37 194.841 33.5178 193.655 33.5178C192.296 33.5178 191.072 33.2149 189.986 32.6114C188.898 32.0079 188.041 31.1452 187.409 30.0231C186.781 28.9009 186.465 27.551 186.465 25.9733V15.0237H189.95V25.714C189.95 27.3911 190.362 28.6174 191.191 29.3954C192.019 30.1709 193.16 30.5611 194.62 30.5611C196.251 30.5611 197.572 30.0182 198.585 28.9325C199.598 27.8467 200.105 26.269 200.105 24.1968V15.0237H203.59V37.1095C203.59 38.1686 203.282 39.0144 202.662 39.6446C202.046 40.2723 201.179 40.5873 200.069 40.5873H188.801L188.799 40.5849Z" fill="#07232F"/>
</svg>
