<svg width="203" height="41" viewBox="0 0 203 41" fill="none" xmlns="http://www.w3.org/2000/svg">
<path d="M22.0356 33.118H10.6643C10.1359 33.118 9.66819 32.7811 9.50096 32.2794L0.0636346 3.91171C-0.200533 3.11921 0.390815 2.30005 1.22694 2.30005H12.5983C13.1266 2.30005 13.5943 2.63692 13.7616 3.1386L23.1989 31.5063C23.4631 32.2988 22.8717 33.118 22.0356 33.118Z" fill="white"/>
<path d="M22.455 33.1179H32.5442C33.0726 33.1179 33.5403 32.7811 33.7076 32.2794L40.1566 14.7571H27.4839L21.2941 31.5063C21.0299 32.2988 21.6213 33.1179 22.4574 33.1179H22.455Z" fill="white"/>
<path d="M28.375 11.6937H46.479C47.4702 11.6937 48.3475 11.0587 48.6602 10.1208L49.6417 7.26097L51.0522 3.0246C51.5466 1.53653 50.4391 0 48.8686 0H33.9516C32.9604 0 32.083 0.634972 31.7704 1.57289L28.375 11.6937Z" fill="white"/>
<path d="M62.793 33.1858L56.5039 15.0212H60.1659L65.2699 30.6314H65.8249L70.8926 15.0212H74.5546L68.2654 33.1858H62.7906H62.793Z" fill="white"/>
<path d="M82.6608 33.7043C81.3788 33.7043 80.2251 33.4813 79.2024 33.0378C78.1797 32.5943 77.3653 31.9399 76.7619 31.0772C76.1584 30.2144 75.8555 29.1795 75.8555 27.9702C75.8555 26.7608 76.156 25.709 76.7619 24.8801C77.3653 24.0537 78.1869 23.4381 79.2218 23.031C80.2566 22.6238 81.4297 22.4202 82.7359 22.4202H88.5428V21.1624C88.5428 20.0282 88.1962 19.1169 87.5079 18.4238C86.8172 17.7331 85.7824 17.3889 84.4009 17.3889C83.0195 17.3889 81.9895 17.7161 81.2382 18.368C80.4845 19.0224 79.9852 19.8779 79.7404 20.9394L76.5219 19.9046C76.8176 18.9182 77.2854 18.019 77.9276 17.2047C78.5674 16.3904 79.4302 15.7385 80.516 15.2441C81.6017 14.7521 82.908 14.5049 84.4373 14.5049C86.7809 14.5049 88.6179 15.1035 89.9485 16.2983C91.2814 17.4956 91.9455 19.1896 91.9455 21.3854V29.1916C91.9455 29.9308 92.2896 30.3016 92.9803 30.3016H94.5702V33.1881H91.8316C90.993 33.1881 90.3144 32.9651 89.7982 32.5216C89.282 32.0781 89.0202 31.4746 89.0202 30.7088V30.5609H88.4652C88.2665 30.956 87.9539 31.4068 87.5225 31.9109C87.0911 32.4174 86.4876 32.8415 85.7096 33.1881C84.9317 33.5322 83.9162 33.7067 82.6584 33.7067L82.6608 33.7043ZM83.1795 30.8178C84.7572 30.8178 86.0465 30.3501 87.045 29.4122C88.0435 28.4743 88.5428 27.1801 88.5428 25.5272V25.1201H82.9565C81.8707 25.1201 80.9958 25.3551 80.3294 25.8229C79.6629 26.2906 79.3308 26.9692 79.3308 27.8563C79.3308 28.7433 79.675 29.4897 80.3657 30.0205C81.0564 30.5512 81.9943 30.8154 83.177 30.8154L83.1795 30.8178Z" fill="white"/>
<path d="M103.965 33.5178C102.608 33.5178 101.387 33.2149 100.303 32.6114C99.2175 32.0079 98.3619 31.1452 97.7318 30.023C97.1041 28.9009 96.7891 27.551 96.7891 25.9733V15.0237H100.267V25.714C100.267 27.3668 100.679 28.5883 101.505 29.376C102.332 30.166 103.471 30.5587 104.927 30.5587C106.556 30.5587 107.874 30.0158 108.885 28.93C109.896 27.8443 110.402 26.2544 110.402 24.158V15.0212H113.88V33.1858H110.477V30.3381H109.922C109.552 31.1282 108.912 31.8553 107.998 32.5217C107.084 33.1882 105.742 33.5202 103.965 33.5202V33.5178Z" fill="white"/>
<path d="M118.836 33.1857V7.29004H122.275V33.1857H118.836Z" fill="white"/>
<path d="M134.005 33.1857C132.919 33.1857 132.068 32.8706 131.453 32.2429C130.837 31.6152 130.527 30.7694 130.527 29.7079V17.9439H125.348V15.0211H130.527V8.80713H133.966V15.0211H139.625V17.9439H133.966V29.1529C133.966 29.8921 134.322 30.2629 135.039 30.2629H138.924V33.1857H134.005Z" fill="white"/>
<path d="M143.328 40.5848V15.0211H146.694V17.7597H147.249C147.717 16.9212 148.452 16.1699 149.45 15.5034C150.449 14.8369 151.849 14.5049 153.65 14.5049C155.204 14.5049 156.621 14.8757 157.903 15.6149C159.185 16.3541 160.208 17.4228 160.974 18.814C161.737 20.2075 162.12 21.8798 162.12 23.8259V24.3445C162.12 26.3173 161.737 28.0017 160.974 29.3952C160.208 30.7888 159.185 31.8551 157.903 32.5943C156.621 33.3335 155.204 33.7043 153.65 33.7043C152.441 33.7043 151.418 33.5492 150.579 33.2414C149.741 32.9336 149.062 32.5386 148.546 32.0587C148.027 31.5788 147.62 31.0796 147.325 30.5609H146.77V40.5872H143.331L143.328 40.5848ZM152.685 30.67C154.435 30.67 155.868 30.1102 156.978 28.9881C158.088 27.8659 158.643 26.2931 158.643 24.2718V23.9398C158.643 21.9185 158.08 20.3457 156.961 19.2235C155.839 18.1014 154.413 17.5416 152.688 17.5416C150.962 17.5416 149.537 18.1039 148.415 19.2235C147.293 20.3457 146.733 21.9185 146.733 23.9398V24.2718C146.733 26.2955 147.293 27.8659 148.415 28.9881C149.537 30.1102 150.962 30.67 152.688 30.67H152.685Z" fill="white"/>
<path d="M171.774 33.7043C170.492 33.7043 169.338 33.4813 168.316 33.0378C167.293 32.5943 166.479 31.9399 165.875 31.0772C165.272 30.2144 164.969 29.1795 164.969 27.9702C164.969 26.7608 165.269 25.709 165.875 24.8801C166.479 24.0537 167.3 23.4381 168.335 23.031C169.37 22.6238 170.543 22.4202 171.849 22.4202H177.656V21.1624C177.656 20.0282 177.309 19.1169 176.621 18.4238C175.93 17.7331 174.896 17.3889 173.514 17.3889C172.133 17.3889 171.103 17.7161 170.351 18.368C169.598 19.0224 169.098 19.8779 168.854 20.9394L165.635 19.9046C165.931 18.9182 166.399 18.019 167.041 17.2047C167.681 16.3904 168.543 15.7385 169.629 15.2441C170.715 14.7521 172.021 14.5049 173.551 14.5049C175.894 14.5049 177.731 15.1035 179.062 16.2983C180.395 17.4956 181.059 19.1896 181.059 21.3854V29.1916C181.059 29.9308 181.403 30.3016 182.094 30.3016H183.683V33.1881H180.945C180.106 33.1881 179.428 32.9651 178.911 32.5216C178.395 32.0781 178.134 31.4746 178.134 30.7088V30.5609H177.579C177.38 30.956 177.067 31.4068 176.636 31.9109C176.204 32.4174 175.601 32.8415 174.823 33.1881C174.045 33.5322 173.029 33.7067 171.772 33.7067L171.774 33.7043ZM172.29 30.8178C173.868 30.8178 175.157 30.3501 176.156 29.4122C177.154 28.4743 177.654 27.1801 177.654 25.5272V25.1201H172.067C170.982 25.1201 170.107 25.3551 169.44 25.8229C168.774 26.2906 168.442 26.9692 168.442 27.8563C168.442 28.7433 168.786 29.4897 169.477 30.0205C170.167 30.5512 171.105 30.8154 172.288 30.8154L172.29 30.8178Z" fill="white"/>
<path d="M188.235 40.5849V37.5506H198.482C199.197 37.5506 199.556 37.1798 199.556 36.4406V30.4472H199.001C198.754 30.9416 198.397 31.4263 197.927 31.9086C197.459 32.3885 196.829 32.7786 196.042 33.0743C195.251 33.37 194.265 33.5178 193.082 33.5178C191.725 33.5178 190.504 33.2149 189.42 32.6114C188.335 32.008 187.479 31.1452 186.849 30.0231C186.221 28.901 185.906 27.551 185.906 25.9733V15.0237H189.384V25.714C189.384 27.3911 189.796 28.6174 190.622 29.3954C191.449 30.1709 192.588 30.5611 194.045 30.5611C195.673 30.5611 196.992 30.0182 198.002 28.9325C199.013 27.8467 199.519 26.269 199.519 24.1968V15.0237H202.997V37.1095C202.997 38.1686 202.689 39.0145 202.071 39.6446C201.456 40.2723 200.591 40.5873 199.483 40.5873H188.238L188.235 40.5849Z" fill="white"/>
</svg>
