<svg width="73" height="73" viewBox="0 0 73 73" fill="none" xmlns="http://www.w3.org/2000/svg">
<g clip-path="url(#clip0_1_453)">
<path d="M48.4227 63.915V57.9211C48.4227 54.7417 47.1597 51.6926 44.9115 49.4444C42.6634 47.1963 39.6142 45.9333 36.4348 45.9333H15.4561C12.2767 45.9333 9.22758 47.1963 6.97942 49.4444C4.73126 51.6926 3.46826 54.7417 3.46826 57.9211V63.915M60.4105 24.9545V42.9363M69.4014 33.9454H51.4196M37.9333 21.9576C37.9333 28.5783 32.5662 33.9454 25.9455 33.9454C19.3248 33.9454 13.9576 28.5783 13.9576 21.9576C13.9576 15.3369 19.3248 9.96973 25.9455 9.96973C32.5662 9.96973 37.9333 15.3369 37.9333 21.9576Z" stroke="white" stroke-width="5.99392" stroke-linecap="round" stroke-linejoin="round"/>
</g>
<rect x="0.971191" y="1.479" width="70.9271" height="70.9271" stroke="black"/>
<defs>
<clipPath id="clip0_1_453">
<rect x="0.471191" y="0.979004" width="71.9271" height="71.9271" fill="white"/>
</clipPath>
</defs>
</svg>
