<svg width="200" height="40" viewBox="0 0 200 40" fill="none" xmlns="http://www.w3.org/2000/svg">
  <!-- V icon -->
  <path d="M0 2C0 0.895431 0.895431 0 2 0H18C19.1046 0 20 0.895431 20 2V18C20 19.1046 19.1046 20 18 20H2C0.895431 20 0 19.1046 0 18V2Z" fill="#B8FF9F"/>
  <path d="M4 4L10 16L16 4H12L10 8L8 4H4Z" fill="#0A0A0A"/>
  
  <path d="M0 22C0 20.8954 0.895431 20 2 20H18C19.1046 20 20 20.8954 20 22V38C20 39.1046 19.1046 40 18 40H2C0.895431 40 0 39.1046 0 38V22Z" fill="#B8FF9F"/>
  <path d="M4 24L10 36L16 24H12L10 28L8 24H4Z" fill="#0A0A0A"/>
  
  <!-- vaultpay text -->
  <text x="28" y="28" font-family="system-ui, -apple-system, sans-serif" font-size="24" font-weight="500" fill="#B8FF9F" letter-spacing="-0.5">vaultpay</text>
</svg>
