<svg width="69" height="69" viewBox="0 0 69 69" fill="none" xmlns="http://www.w3.org/2000/svg">
<path d="M58.2893 0H10.7107C4.79545 0 0 4.79545 0 10.7107V58.2893C0 64.2046 4.79545 69 10.7107 69H58.2893C64.2046 69 69 64.2046 69 58.2893V10.7107C69 4.79545 64.2046 0 58.2893 0ZM44.3724 48.6592C44.2219 49.1109 43.7996 49.4155 43.3239 49.4155H34.2301C34.165 49.4155 34.1027 49.4084 34.0412 49.3977C33.9797 49.4084 33.9174 49.4155 33.8524 49.4155H23.604C23.1283 49.4155 22.706 49.1109 22.5555 48.6592L14.0487 23.0918C13.8109 22.3764 14.3427 21.6388 15.0973 21.6388H25.3456C25.8213 21.6388 26.2436 21.9435 26.3941 22.3942L34.0866 45.5154L38.7627 32.8653H50.1843L44.3724 48.6592ZM60.0024 22.2918L58.7321 26.11L57.8483 28.6863C57.5668 29.5335 56.774 30.1045 55.8822 30.1045H39.5645L42.6255 20.9831C42.907 20.1359 43.6989 19.5649 44.5916 19.5649H58.0354C59.4492 19.5649 60.4478 20.9502 60.0015 22.2918H60.0024Z" fill="white"/>
</svg>
